{
  "accessors": [
    {
      "bufferView": 2,
      "componentType": 5126,
      "count": 842,
      "max": [
        5.199720859527588,
        6.717494964599609,
        9.014084815979004
      ],
      "min": [
        -5.199720859527588,
        -6.743091106414795,
        -9.118885040283203
      ],
      "type": "VEC3"
    },
    {
      "bufferView": 2,
      "byteOffset": 10104,
      "componentType": 5126,
      "count": 842,
      "max": [
        0.9988081455230713,
        0.9998525381088257,
        0.9946537613868713
      ],
      "min": [
        -0.9988081455230713,
        -1.0,
        -0.9997285008430481
      ],
      "type": "VEC3"
    },
    {
      "bufferView": 1,
      "componentType": 5126,
      "count": 842,
      "max": [
        0.986374020576477,
        0.9909809827804565
      ],
      "min": [
        0.008836000226438046,
        0.059112001210451126
      ],
      "type": "VEC2"
    },
    {
      "bufferView": 0,
      "componentType": 5125,
      "count": 4626,
      "type": "SCALAR"
    },
    {
      "bufferView": 2,
      "byteOffset": 20208,
      "componentType": 5126,
      "count": 9959,
      "max": [
        6.0572662353515625,
        9.509941101074219,
        10.755197525024414
      ],
      "min": [
        -6.50749397277832,
        -6.0364861488342285,
        -8.378803253173828
      ],
      "type": "VEC3"
    },
    {
      "bufferView": 2,
      "byteOffset": 139716,
      "componentType": 5126,
      "count": 9959,
      "max": [
        0.9999468922615051,
        0.9999923706054688,
        0.9995433688163757
      ],
      "min": [
        -0.9998164772987366,
        -0.9996576309204102,
        -0.9957019090652466
      ],
      "type": "VEC3"
    },
    {
      "bufferView": 1,
      "byteOffset": 6736,
      "componentType": 5126,
      "count": 9959,
      "max": [
        0.9972190260887146,
        0.9975590109825134
      ],
      "min": [
        0.002440999960526824,
        0.002440999960526824
      ],
      "type": "VEC2"
    },
    {
      "bufferView": 0,
      "byteOffset": 18504,
      "componentType": 5125,
      "count": 33417,
      "type": "SCALAR"
    },
    {
      "bufferView": 2,
      "byteOffset": 259224,
      "componentType": 5126,
      "count": 1212,
      "max": [
        6.063910007476807,
        8.996293067932129,
        10.79575252532959
      ],
      "min": [
        -2.160593032836914,
        -5.796547889709473,
        -5.884030818939209
      ],
      "type": "VEC3"
    },
    {
      "bufferView": 2,
      "byteOffset": 273768,
      "componentType": 5126,
      "count": 1212,
      "max": [
        0.9976806640625,
        0.9987878799438477,
        0.9913672208786011
      ],
      "min": [
        -0.9866008758544922,
        -0.9998073577880859,
        -0.9669186472892761
      ],
      "type": "VEC3"
    },
    {
      "bufferView": 1,
      "byteOffset": 86408,
      "componentType": 5126,
      "count": 1212,
      "max": [
        0.9957619905471802,
        0.9548379778862
      ],
      "min": [
        0.023144999518990517,
        0.002440999960526824
      ],
      "type": "VEC2"
    },
    {
      "bufferView": 0,
      "byteOffset": 152172,
      "componentType": 5125,
      "count": 4032,
      "type": "SCALAR"
    },
    {
      "bufferView": 2,
      "byteOffset": 288312,
      "componentType": 5126,
      "count": 494,
      "max": [
        4.635095119476318,
        -5.913650989532471,
        7.755090236663818
      ],
      "min": [
        -4.941036224365234,
        -6.749350070953369,
        6.528205871582031
      ],
      "type": "VEC3"
    },
    {
      "bufferView": 2,
      "byteOffset": 294240,
      "componentType": 5126,
      "count": 494,
      "max": [
        0.8908047080039978,
        -0.07617801427841187,
        0.9970942139625549
      ],
      "min": [
        -0.8994061350822449,
        -0.9939177632331848,
        -0.4059460461139679
      ],
      "type": "VEC3"
    },
    {
      "bufferView": 1,
      "byteOffset": 96104,
      "componentType": 5126,
      "count": 494,
      "max": [
        0.9769260287284851,
        0.7899789810180664
      ],
      "min": [
        0.022597000002861023,
        0.2781899869441986
      ],
      "type": "VEC2"
    },
    {
      "bufferView": 0,
      "byteOffset": 168300,
      "componentType": 5125,
      "count": 834,
      "type": "SCALAR"
    },
    {
      "bufferView": 2,
      "byteOffset": 300168,
      "componentType": 5126,
      "count": 123,
      "max": [
        7.2617669105529785,
        1.144873023033142,
        7.989209175109863
      ],
      "min": [
        -6.850371837615967,
        -7.4722418785095215,
        -5.127440929412842
      ],
      "type": "VEC3"
    },
    {
      "bufferView": 2,
      "byteOffset": 301644,
      "componentType": 5126,
      "count": 123,
      "max": [
        0.9891749024391174,
        0.9294373393058777,
        0.8426253199577332
      ],
      "min": [
        -0.98862224817276,
        -0.7655348777770996,
        -0.3315490782260895
      ],
      "type": "VEC3"
    },
    {
      "bufferView": 1,
      "byteOffset": 100056,
      "componentType": 5126,
      "count": 123,
      "max": [
        0.0,
        0.0
      ],
      "min": [
        0.0,
        0.0
      ],
      "type": "VEC2"
    },
    {
      "bufferView": 0,
      "byteOffset": 171636,
      "componentType": 5125,
      "count": 336,
      "type": "SCALAR"
    },
    {
      "bufferView": 2,
      "byteOffset": 303120,
      "componentType": 5126,
      "count": 9993,
      "max": [
        9.00423526763916,
        4.831786155700684,
        9.05226993560791
      ],
      "min": [
        -9.016075134277344,
        -8.004701614379883,
        -12.829498291015625
      ],
      "type": "VEC3"
    },
    {
      "bufferView": 2,
      "byteOffset": 423036,
      "componentType": 5126,
      "count": 9993,
      "max": [
        1.0,
        0.9998845458030701,
        0.9999979734420776
      ],
      "min": [
        -1.0,
        -0.9999982118606567,
        -0.9999978542327881
      ],
      "type": "VEC3"
    },
    {
      "bufferView": 1,
      "byteOffset": 101040,
      "componentType": 5126,
      "count": 9993,
      "max": [
        0.9900230169296265,
        0.9899190068244934
      ],
      "min": [
        0.00976600032299757,
        0.00976600032299757
      ],
      "type": "VEC2"
    },
    {
      "bufferView": 0,
      "byteOffset": 172980,
      "componentType": 5125,
      "count": 29088,
      "type": "SCALAR"
    },
    {
      "bufferView": 2,
      "byteOffset": 542952,
      "componentType": 5126,
      "count": 8131,
      "max": [
        8.696342468261719,
        3.7786779403686523,
        9.05226993560791
      ],
      "min": [
        -9.00234603881836,
        -7.680768013000488,
        -13.75858211517334
      ],
      "type": "VEC3"
    },
    {
      "bufferView": 2,
      "byteOffset": 640524,
      "componentType": 5126,
      "count": 8131,
      "max": [
        1.0,
        0.9999871253967285,
        0.9999979734420776
      ],
      "min": [
        -1.0,
        -0.9999991059303284,
        -0.9999979734420776
      ],
      "type": "VEC3"
    },
    {
      "bufferView": 1,
      "byteOffset": 180984,
      "componentType": 5126,
      "count": 8131,
      "max": [
        0.9898549914360046,
        0.9902340173721313
      ],
      "min": [
        0.00976600032299757,
        0.00976600032299757
      ],
      "type": "VEC2"
    },
    {
      "bufferView": 0,
      "byteOffset": 289332,
      "componentType": 5125,
      "count": 24702,
      "type": "SCALAR"
    }
  ],
  "asset": {
    "extras": {
      "author": "Lorenzo Penco (https://sketchfab.com/Eksmanen)",
      "license": "CC-BY-4.0 (http://creativecommons.org/licenses/by/4.0/)",
      "source": "https://sketchfab.com/3d-models/thefuture-b5fda59eb51341a58da234c24074d2f0",
      "title": "TheFuture"
    },
    "generator": "Sketchfab-12.68.0",
    "version": "2.0"
  },
  "bufferViews": [
    {
      "buffer": 0,
      "byteLength": 388140,
      "name": "floatBufferViews",
      "target": 34963
    },
    {
      "buffer": 0,
      "byteLength": 246032,
      "byteOffset": 388140,
      "byteStride": 8,
      "name": "floatBufferViews",
      "target": 34962
    },
    {
      "buffer": 0,
      "byteLength": 738096,
      "byteOffset": 634172,
      "byteStride": 12,
      "name": "floatBufferViews",
      "target": 34962
    }
  ],
  "buffers": [
    {
      "byteLength": 1372268,
      "uri": "scene.bin"
    }
  ],
  "extensionsUsed": [
    "KHR_materials_unlit"
  ],
  "images": [
    {
      "uri": "textures/capelliHIcapelliHIlambert2SG_baseColor.png"
    },
    {
      "uri": "textures/capelliHIlambert1SG_baseColor.png"
    },
    {
      "uri": "textures/lambert6SG_baseColor.png"
    },
    {
      "uri": "textures/lambert6SG_emissive.png"
    },
    {
      "uri": "textures/lambert7SG_baseColor.png"
    }
  ],
  "materials": [
    {
      "alphaMode": "BLEND",
      "doubleSided": true,
      "extensions": {
        "KHR_materials_unlit": {}
      },
      "name": "capelliHIcapelliHIlambert2SG",
      "pbrMetallicRoughness": {
        "baseColorTexture": {
          "index": 0
        },
        "metallicFactor": 0.0
      }
    },
    {
      "doubleSided": true,
      "extensions": {
        "KHR_materials_unlit": {}
      },
      "name": "capelliHIlambert1SG",
      "pbrMetallicRoughness": {
        "baseColorTexture": {
          "index": 1
        },
        "metallicFactor": 0.0
      }
    },
    {
      "doubleSided": true,
      "emissiveFactor": [
        1.0,
        1.0,
        1.0
      ],
      "emissiveTexture": {
        "index": 3
      },
      "extensions": {
        "KHR_materials_unlit": {}
      },
      "name": "lambert6SG",
      "pbrMetallicRoughness": {
        "baseColorTexture": {
          "index": 2
        },
        "metallicFactor": 0.0
      }
    },
    {
      "alphaMode": "BLEND",
      "doubleSided": true,
      "extensions": {
        "KHR_materials_unlit": {}
      },
      "name": "lambert7SG",
      "pbrMetallicRoughness": {
        "baseColorTexture": {
          "index": 4
        },
        "metallicFactor": 0.0
      }
    }
  ],
  "meshes": [
    {
      "name": "Object_0",
      "primitives": [
        {
          "attributes": {
            "NORMAL": 1,
            "POSITION": 0,
            "TEXCOORD_0": 2
          },
          "indices": 3,
          "material": 0,
          "mode": 4
        }
      ]
    },
    {
      "name": "Object_1",
      "primitives": [
        {
          "attributes": {
            "NORMAL": 5,
            "POSITION": 4,
            "TEXCOORD_0": 6
          },
          "indices": 7,
          "material": 1,
          "mode": 4
        }
      ]
    },
    {
      "name": "Object_2",
      "primitives": [
        {
          "attributes": {
            "NORMAL": 9,
            "POSITION": 8,
            "TEXCOORD_0": 10
          },
          "indices": 11,
          "material": 1,
          "mode": 4
        }
      ]
    },
    {
      "name": "Object_3",
      "primitives": [
        {
          "attributes": {
            "NORMAL": 13,
            "POSITION": 12,
            "TEXCOORD_0": 14
          },
          "indices": 15,
          "material": 2,
          "mode": 4
        }
      ]
    },
    {
      "name": "Object_4",
      "primitives": [
        {
          "attributes": {
            "NORMAL": 17,
            "POSITION": 16,
            "TEXCOORD_0": 18
          },
          "indices": 19,
          "material": 3,
          "mode": 4
        }
      ]
    },
    {
      "name": "Object_5",
      "primitives": [
        {
          "attributes": {
            "NORMAL": 21,
            "POSITION": 20,
            "TEXCOORD_0": 22
          },
          "indices": 23,
          "material": 3,
          "mode": 4
        }
      ]
    },
    {
      "name": "Object_6",
      "primitives": [
        {
          "attributes": {
            "NORMAL": 25,
            "POSITION": 24,
            "TEXCOORD_0": 26
          },
          "indices": 27,
          "material": 3,
          "mode": 4
        }
      ]
    }
  ],
  "nodes": [
    {
      "children": [
        1
      ],
      "matrix": [
        1.0,
        0.0,
        0.0,
        0.0,
        0.0,
        2.220446049250313e-16,
        -1.0,
        0.0,
        0.0,
        1.0,
        2.220446049250313e-16,
        0.0,
        0.0,
        0.0,
        0.0,
        1.0
      ],
      "name": "Sketchfab_model"
    },
    {
      "children": [
        2,
        3,
        4,
        5,
        6,
        7,
        8
      ],
      "name": "TheFuture.obj.cleaner.materialmerger.gles"
    },
    {
      "mesh": 0,
      "name": "Object_2"
    },
    {
      "mesh": 1,
      "name": "Object_3"
    },
    {
      "mesh": 2,
      "name": "Object_4"
    },
    {
      "mesh": 3,
      "name": "Object_5"
    },
    {
      "mesh": 4,
      "name": "Object_6"
    },
    {
      "mesh": 5,
      "name": "Object_7"
    },
    {
      "mesh": 6,
      "name": "Object_8"
    }
  ],
  "samplers": [
    {
      "magFilter": 9729,
      "minFilter": 9987,
      "wrapS": 10497,
      "wrapT": 10497
    }
  ],
  "scene": 0,
  "scenes": [
    {
      "name": "Sketchfab_Scene",
      "nodes": [
        0
      ]
    }
  ],
  "textures": [
    {
      "sampler": 0,
      "source": 0
    },
    {
      "sampler": 0,
      "source": 1
    },
    {
      "sampler": 0,
      "source": 2
    },
    {
      "sampler": 0,
      "source": 3
    },
    {
      "sampler": 0,
      "source": 4
    }
  ]
}
