<svg version="1.1" id="Layer_1" xmlns="http://www.w3.org/2000/svg" xmlns:xlink="http://www.w3.org/1999/xlink" x="0px" y="0px"
	 width="100%" viewBox="0 0 784 512" enable-background="new 0 0 784 512" xml:space="preserve">
<path fill="#000000" opacity="1.000000" stroke="none" 
	d="
M542.964722,434.540527 
	C536.798462,450.489014 524.109497,459.306152 507.470978,459.312103 
	C437.310699,459.337219 367.150421,459.329010 296.990143,459.321014 
	C271.784485,459.318146 257.023407,444.517456 257.011230,419.141205 
	C256.984253,362.813019 256.952972,306.484772 257.049561,250.156738 
	C257.076385,234.502350 256.333069,218.824814 257.649689,203.194916 
	C259.077484,186.244507 274.398529,171.765076 291.566711,171.730728 
	C364.393097,171.585022 437.220764,171.489182 510.046082,171.808456 
	C527.188354,171.883606 545.080444,185.005417 544.971741,211.370163 
	C544.761414,262.364471 544.963501,313.360474 544.981201,364.355774 
	C544.987366,382.020813 544.919739,399.685913 544.957764,417.350861 
	C544.969971,423.036072 544.629822,428.657196 542.964722,434.540527 
M433.754883,250.040375 
	C417.718750,271.226532 398.790680,289.666748 379.369659,307.912476 
	C379.254120,287.731842 377.577423,267.956635 379.818787,248.231476 
	C380.246735,244.465164 382.794373,242.445892 386.415497,241.688446 
	C391.458954,240.633530 396.503967,239.585007 401.537781,238.485550 
	C403.285431,238.103836 404.638916,237.251282 404.641266,235.169678 
	C404.643158,233.482574 404.712708,231.708359 403.014069,230.735062 
	C401.203583,229.697693 399.123444,229.958069 397.141693,229.955994 
	C374.317169,229.932053 351.492645,229.935257 328.668121,229.939575 
	C326.003571,229.940079 323.339050,230.004272 320.674438,230.014481 
	C317.600342,230.026260 316.767883,232.066772 316.522888,234.602386 
	C316.271149,237.207718 318.020325,238.107590 320.117859,238.554993 
	C322.391296,239.039917 324.697144,239.370575 326.979858,239.814697 
	C342.020203,242.740753 342.970367,243.628876 343.040161,259.011322 
	C343.178528,289.498108 343.259857,319.988251 342.932129,350.472321 
	C342.832275,359.758850 343.070312,369.150574 341.305389,378.356842 
	C340.005737,385.136139 335.773865,388.669037 329.632996,388.315094 
	C323.076904,387.937225 319.554352,383.812317 317.492432,378.064636 
	C315.175415,371.605835 313.782745,364.942505 313.588654,358.082031 
	C313.442291,352.908478 310.596405,352.037506 306.038849,352.130951 
	C301.133240,352.231537 301.297668,355.172791 301.338745,358.471863 
	C301.475769,369.477936 300.301941,380.402374 298.729950,391.254059 
	C298.169037,395.126099 299.199738,396.716583 302.743561,397.717316 
	C314.970917,401.170288 327.328094,401.949677 339.782715,399.515930 
	C360.688751,395.430695 375.131073,379.525269 377.830200,358.485443 
	C379.259216,347.346222 378.359985,336.202118 378.720795,325.066132 
	C378.798950,322.654327 378.732239,320.237793 378.732239,317.891418 
	C381.146637,317.641144 381.771454,319.001373 382.527740,319.989166 
	C396.196136,337.840607 409.928314,355.644531 423.437988,373.615631 
	C431.246552,384.002899 430.249176,386.339294 417.487091,388.943939 
	C414.749268,389.502747 412.377838,389.558472 412.843719,393.642426 
	C413.279907,397.466248 415.362976,397.678925 418.285889,397.669189 
	C433.613251,397.618195 448.940857,397.649933 464.268402,397.651306 
	C475.930664,397.652344 487.594238,397.552094 499.254364,397.709839 
	C502.848022,397.758453 503.800171,396.303589 503.806519,392.951202 
	C503.813141,389.460907 501.567902,388.940491 499.077271,388.305939 
	C487.708282,385.409180 476.520966,382.206146 468.546661,372.629822 
	C449.150665,349.337402 429.714630,326.078308 410.252563,302.841095 
	C408.337036,300.553955 408.709503,298.772583 410.666840,296.789215 
	C424.939514,282.326996 439.277802,267.927002 453.375793,253.295761 
	C461.737701,244.617569 471.740784,239.739716 483.663574,238.675568 
	C486.975800,238.379944 488.969391,237.087540 488.774048,233.384628 
	C488.569275,229.503464 485.687805,230.026535 483.309082,230.011078 
	C470.980988,229.930954 458.652161,229.947876 446.323608,229.944702 
	C438.826660,229.942764 431.329681,229.963058 423.832733,229.978714 
	C420.953094,229.984726 418.521271,230.395996 418.362946,234.172287 
	C418.221924,237.536179 420.068390,238.420975 422.909332,238.795685 
	C425.370605,239.120316 427.793182,239.781387 430.211700,240.379349 
	C436.634705,241.967438 437.180389,243.252777 433.754883,250.040375 
z"/>
</svg>